<svg width="81" height="32" viewBox="0 0 81 32" fill="none" xmlns="http://www.w3.org/2000/svg"><g clip-path="url(#a)"><path d="M17.777 11.753a9.4 9.4 0 0 0-1.573-3.438 7.9 7.9 0 0 0-2.866-2.436 9.15 9.15 0 0 0-4.013-.865 10.2 10.2 0 0 0-3.726.721 8.5 8.5 0 0 0-3.01 2.007 8.2 8.2 0 0 0-1.858 3.01 10.8 10.8 0 0 0-.721 3.726c-.04 1.314.155 2.624.577 3.869a8.2 8.2 0 0 0 1.862 3.01 7.4 7.4 0 0 0 3.01 2.007c1.235.472 2.546.716 3.869.721a9.2 9.2 0 0 0 5.3-1.433 5.8 5.8 0 0 0 1.862-1.862 8 8 0 0 0 1.29-2.723l.144-.432a.144.144 0 0 0-.144-.144h-4.733c-.288 0-.288.144-.288.144v.144a1.1 1.1 0 0 1-.288.577c-.144.288-.432.432-.721.721a3.64 3.64 0 0 1-2.293.577 5.2 5.2 0 0 1-1.577-.288 3 3 0 0 1-1.862-1.862 4.2 4.2 0 0 1-.288-1.433h12.324c.144 0 .144-.288.144-.288v-1.014a11 11 0 0 0-.432-3.01M6.443 10.605a6.2 6.2 0 0 1 1.009-.865 3.1 3.1 0 0 1 1.72-.288c.482-.03.966.018 1.433.144a1.32 1.32 0 0 1 .865.577 5.2 5.2 0 0 1 1.009 2.007h-6.74c0-.144.144-.432.144-.577a3.6 3.6 0 0 1 .577-1.009" fill="#262324"></path><path d="m35.688 23.504-6.59-9.458 6.018-8.455s.144-.144-.144-.144h-6.018a.5.5 0 0 0-.288.144l-2.722 4.012-2.723-4.012a.5.5 0 0 0-.288-.144h-6.157a.144.144 0 0 0-.144.144l.432.577 5.589 8.025-6.454 9.453s-.144.144.144.144h6.02c.288 0 .288-.144.288-.144l3.3-4.872 3.3 4.872a.5.5 0 0 0 .288.144h6.02c.288-.144.144-.288.144-.288m7.582-18.056h-7.022c-.288 0-.144.144-.144.144l1.009 17.914s0 .288.144.288h4.872c.144 0 .144-.288.144-.288l1.01-17.914c.144 0 .144-.144 0-.144m13.177 4.013s.144 0 .144-.288V5.444a.144.144 0 0 0-.144-.144h-3.3V.288a.145.145 0 0 0-.144-.144h-5.3a.144.144 0 0 0-.144.144v5.017h-2.72c-.288 0-.288.144-.288.144v3.726a.144.144 0 0 0 .144.144h2.723v9.745a5.5 5.5 0 0 0 .432 2.293 3.46 3.46 0 0 0 1.433 1.433 7.2 7.2 0 0 0 1.862.721c.71.12 1.43.167 2.149.144h1.433c.482.03.966-.018 1.433-.144h.144s.144 0 .144-.288v-4.3c0-.288-.144-.144-.144-.144H55.9a6 6 0 0 1-.721.144h-.724c-.432 0-.721 0-.865-.144-.144 0-.288-.144-.432-.144a.63.63 0 0 1-.144-.432c0-.288-.144-.577-.144-.865V9.172h3.582zm18.768 1.146a10.7 10.7 0 0 0-1.862-3.01 10.29 10.29 0 0 0-10.749-2 8.5 8.5 0 0 0-3.01 2.007 8.2 8.2 0 0 0-1.858 3.006 11.8 11.8 0 0 0-.721 4.009c.005 1.323.249 2.633.721 3.869a10.7 10.7 0 0 0 1.862 3.01 10.29 10.29 0 0 0 10.748 2.007 8.5 8.5 0 0 0 3.01-2.007 8.2 8.2 0 0 0 1.862-3.01c.472-1.236.717-2.546.721-3.869a11.8 11.8 0 0 0-.721-4.013m-7.022 8.6a3.25 3.25 0 0 1-1.862.432 3.06 3.06 0 0 1-1.72-.432 2.93 2.93 0 0 1-1.153-1.153 5.1 5.1 0 0 1-.576-1.578 8.2 8.2 0 0 1-.144-1.862 9.5 9.5 0 0 1 .144-2.007 5.1 5.1 0 0 1 .577-1.577 4.4 4.4 0 0 1 1.153-1.154 3.06 3.06 0 0 1 1.72-.432 4 4 0 0 1 1.862.432c.453.308.845.7 1.153 1.153a3 3 0 0 1 .577 1.577c.124.661.173 1.335.144 2.007a9.5 9.5 0 0 1-.144 2.007 5.1 5.1 0 0 1-.577 1.577 2.66 2.66 0 0 1-1.153 1.009" fill="#262324"></path><path d="M43.143 28.089a3.439 3.439 0 1 0-3.44 3.439 3.487 3.487 0 0 0 3.44-3.439" fill="#ee3124"></path><path d="M10.036.288 7.313 3.582s-.144.144 0 .144h3.153a.63.63 0 0 0 .432-.144l4.44-3.438s.144-.144 0-.144h-5.017l-.288.288m70.37 6.88a3.4 3.4 0 0 1-.288 1.153c-.21.357-.508.655-.865.865a2.7 2.7 0 0 1-1.153.288 3.4 3.4 0 0 1-1.153-.288 2.44 2.44 0 0 1-.865-.865 2.7 2.7 0 0 1-.289-1.153c.027-.398.124-.789.288-1.153.21-.357.508-.655.865-.865a2.7 2.7 0 0 1 1.153-.288c.398.027.789.125 1.153.288.357.21.655.508.865.865.164.364.262.755.289 1.153m-.433 0a1.75 1.75 0 0 0-.577-1.29 1.82 1.82 0 0 0-1.29-.577 1.75 1.75 0 0 0-1.29.577 1.82 1.82 0 0 0-.576 1.29 1.75 1.75 0 0 0 .577 1.29 1.82 1.82 0 0 0 1.29.577 1.75 1.75 0 0 0 1.29-.577 1.4 1.4 0 0 0 .576-1.29m-2.861-1.156h1c.25-.038.505.013.721.144a.72.72 0 0 1 0 .865c-.144.144-.288.144-.432.288.144 0 .144 0 .144.144a.5.5 0 0 1 .144.288q.196.373.432.721h-.577a2.2 2.2 0 0 1-.432-.865c-.144-.144-.144-.144-.288-.144v1.009h-.712zm.577 1.009h.288a.53.53 0 0 0 .432-.144.5.5 0 0 0 .144-.288c0-.144 0-.144-.144-.144a.5.5 0 0 0-.288-.144h-.288v.721z" fill="#262324"></path></g><defs><clipPath id="a"><path fill="#fff" d="M0 0h80.403v31.529H0z"></path></clipPath></defs></svg>