<svg width="70" height="38" viewBox="0 0 70 38" fill="none" xmlns="http://www.w3.org/2000/svg"><g clip-path="url(#a)"><path d="M10.701 33.056C3.9 29.61 0 24.616 0 19.008 0 13.764 3.896 8.91 10.676 5.33 17.196 1.891 25.833 0 35 0c9.377 0 18.006 1.755 24.306 4.948C66.1 8.397 70 13.387 70 19.008c0 5.236-3.889 10.087-10.676 13.669C52.805 36.11 44.165 38 35 38c-9.381 0-18.008-1.755-24.299-4.944M1.473 19.008c0 10.75 15.013 17.673 33.527 17.673s33.527-7.915 33.527-17.673C68.527 8.248 53.515 1.32 35 1.32S1.473 9.235 1.473 19.008m42.408 6.726a7.3 7.3 0 0 1-1.277-2.064 3.2 3.2 0 0 1-1.665.476 3.25 3.25 0 0 1-2.852-1.56 2.65 2.65 0 0 1-2.377 1.634 2.54 2.54 0 0 1-2.204-1.182 2.49 2.49 0 0 1-2.112 1.137c-1.527 0-2.593-1.097-2.791-2.855a9.7 9.7 0 0 1-.02-1.999c.02-.148-.04-.195-.19-.17a7 7 0 0 1-1.645.046 5.57 5.57 0 0 1-1.011 3.974 2.76 2.76 0 0 1-2.43.967 2.63 2.63 0 0 1-1.828-1.133 2.93 2.93 0 0 1-2.489 1.262 2.63 2.63 0 0 1-1.724-.64 6.12 6.12 0 0 1-4.74 2.243 5.7 5.7 0 0 1-3.189-.858 5.73 5.73 0 0 1-2.185-2.48 7.9 7.9 0 0 1 .987-8.128 5.68 5.68 0 0 1 5.902-2.271 3.175 3.175 0 0 1 2.362 2.7 3.99 3.99 0 0 1-1.398 3.42.628.628 0 0 1-1.017-.55.62.62 0 0 1 .228-.42 2.72 2.72 0 0 0 .943-2.3 1.92 1.92 0 0 0-1.465-1.643 4.5 4.5 0 0 0-4.581 1.858 6.6 6.6 0 0 0-.731 6.758 4.29 4.29 0 0 0 4.145 2.573 4.96 4.96 0 0 0 3.986-1.92 3 3 0 0 1-.126-.325 4 4 0 0 1-.079-1.929 3.45 3.45 0 0 1 1.928-2.495 3.12 3.12 0 0 1 2.69.113.77.77 0 0 1 .61-.368c.433 0 .832.247.832 2.024a7.8 7.8 0 0 1-.246 1.956q.07.195.161.38a1.46 1.46 0 0 0 1.145.953 1.46 1.46 0 0 0 1.383-.55 4.62 4.62 0 0 0 .667-3.461 1.57 1.57 0 0 1-.861-.71.92.92 0 0 1 .374-1.153.84.84 0 0 1 1.137.175c.166.209.292.446.374.7.74.133 1.5.103 2.227-.088a.95.95 0 0 1 .882.148c.334.292.292.709.238 1.186a8.7 8.7 0 0 0-.02 2.019c.065.53.335 1.76 1.57 1.76a1.7 1.7 0 0 0 1.53-1.304 7.2 7.2 0 0 1-.224-1.913c0-2.253.55-2.253.847-2.253.604 0 .875.63.875 2.04a8.2 8.2 0 0 1-.255 2.052c.083.283.207.553.37.8a1.33 1.33 0 0 0 1.172.622 1.35 1.35 0 0 0 1.12-.7c.272-.42.473-.881.597-1.365a8 8 0 0 1-.195-1.766c0-1.342.266-1.94.875-1.94.84 0 .84 1.187.84 1.634a9.6 9.6 0 0 1-.245 2.054c.1.38.257.741.466 1.072a2.04 2.04 0 0 0 1.776.932 2.1 2.1 0 0 0 1.25-.437 19.6 19.6 0 0 1-.401-7.164c.332-3.348 1.2-5.144 2.441-5.048 1.204.091 1.91 2.02 1.76 4.804-.189 3.522-1.07 6.248-2.395 7.757.262.765.67 1.473 1.199 2.085a3.74 3.74 0 0 0 2.826 1.293 3.65 3.65 0 0 0 2.785-1.288 6.7 6.7 0 0 0 1.211-1.99c-1.387-1.597-2.103-4.627-1.99-8.669.077-2.73.765-4.31 1.89-4.347h.043c1.112 0 1.893 1.535 2.145 4.223a21.6 21.6 0 0 1-.654 8.434q.195.145.42.234a2.4 2.4 0 0 0 2.4-.546 4.04 4.04 0 0 1-.072-1.9 3.46 3.46 0 0 1 1.928-2.496 3.11 3.11 0 0 1 2.689.113.75.75 0 0 1 .612-.368c.433 0 .83.244.83 2.022a7.6 7.6 0 0 1-.245 1.958c.05.13.098.254.16.38a1.62 1.62 0 0 0 1.166.954 1.4 1.4 0 0 0 1.231-.469.616.616 0 0 1 1.05.403.62.62 0 0 1-.145.438 2.64 2.64 0 0 1-2.308.85 2.68 2.68 0 0 1-1.8-1.132 2.91 2.91 0 0 1-2.49 1.267 2.65 2.65 0 0 1-2.051-.962 3.39 3.39 0 0 1-3.424.639 4 4 0 0 1-.406-.201 7.6 7.6 0 0 1-1.28 2.002 4.93 4.93 0 0 1-3.72 1.694 4.92 4.92 0 0 1-3.717-1.703zm14.355-6.756a2.2 2.2 0 0 0-1.228 1.598 2.32 2.32 0 0 0 .363 1.933 1.44 1.44 0 0 0 1.106.521 1.69 1.69 0 0 0 1.504-.773c.145-.21.26-.44.343-.682a7 7 0 0 1-.194-2.444 2.4 2.4 0 0 0-1.132-.313 1.8 1.8 0 0 0-.762.16m-39.494 0a2.2 2.2 0 0 0-1.224 1.598 2.32 2.32 0 0 0 .363 1.933 1.43 1.43 0 0 0 1.108.521 1.7 1.7 0 0 0 1.502-.773c.144-.21.259-.44.34-.682a7 7 0 0 1-.19-2.444 2.4 2.4 0 0 0-1.136-.313 1.8 1.8 0 0 0-.764.16m32.591-7.467a7.3 7.3 0 0 0-.472 2.776c-.097 3.533.46 5.837 1.24 7.166.53-2.366.657-4.805.378-7.213a7.3 7.3 0 0 0-.67-2.753.29.29 0 0 0-.235-.17c-.093 0-.181.065-.24.194m-7.431.299a8.7 8.7 0 0 0-.875 3.616 19.9 19.9 0 0 0 .16 5.912 14 14 0 0 0 1.578-6.336 6.8 6.8 0 0 0-.389-3.168.28.28 0 0 0-.234-.186.29.29 0 0 0-.243.162z" fill="#fff"></path></g><defs><clipPath id="a"><path fill="#fff" d="M0 0h70v38H0z"></path></clipPath></defs></svg>